HIERARCHY
ROOT Hips
{
	OFFSET -14.64140 90.27770 -84.91600
	CHANNELS 6 Xposition Yposition Zposition Zrotation Xrotation Yrotation
	JOINT Spine
	{
		OFFSET 0.00000 13.20850 -1.60436
		CHANNELS 3 Zrotation Xrotation Yrotation
		JOINT Spine1
		{
			OFFSET 0.00000 8.61716 0.00000
			CHANNELS 3 Zrotation Xrotation Yrotation
			JOINT Spine2
			{
				OFFSET 0.00000 8.61717 0.00000
				CHANNELS 3 Zrotation Xrotation Yrotation
				JOINT Spine3
				{
					OFFSET 0.00000 8.61717 0.00000
					CHANNELS 3 Zrotation Xrotation Yrotation
					JOINT Neck
					{
						OFFSET 0.00000 11.07920 1.10792
						CHANNELS 3 Zrotation Xrotation Yrotation
						JOINT Neck1
						{
							OFFSET 0.00000 7.08032 0.00000
							CHANNELS 3 Zrotation Xrotation Yrotation
							JOINT Head
							{
								OFFSET 0.00000 7.08031 0.00000
								CHANNELS 3 Zrotation Xrotation Yrotation
								End site
								{
									OFFSET 0.00000 0.00000 0.00000
								}
							}
						}
					}
					JOINT RightShoulder
					{
						OFFSET -0.01000 7.91373 5.19711
						CHANNELS 3 Zrotation Xrotation Yrotation
						JOINT RightArm
						{
							OFFSET -18.41580 0.00000 0.00000
							CHANNELS 3 Zrotation Xrotation Yrotation
							JOINT RightForeArm
							{
								OFFSET -29.11090 0.00000 0.00000
								CHANNELS 3 Zrotation Xrotation Yrotation
								JOINT RightHand
								{
									OFFSET -24.65040 0.00000 0.00000
									CHANNELS 3 Zrotation Xrotation Yrotation
									JOINT RightHandThumb1
									{
										OFFSET -5.35114 -0.85590 3.97906
										CHANNELS 3 Zrotation Xrotation Yrotation
										JOINT RightHandThumb2
										{
											OFFSET -4.52789 0.00000 0.00000
											CHANNELS 3 Zrotation Xrotation Yrotation
											JOINT RightHandThumb3
											{
												OFFSET -2.46976 0.00000 0.00000
												CHANNELS 3 Zrotation Xrotation Yrotation
												End site
												{
													OFFSET 0.00000 0.00000 0.00000
												}
											}
										}
									}
									JOINT RightHandIndex1
									{
										OFFSET -14.26970 0.00000 2.88139
										CHANNELS 3 Zrotation Xrotation Yrotation
										JOINT RightHandIndex2
										{
											OFFSET -5.48836 0.00000 0.00000
											CHANNELS 3 Zrotation Xrotation Yrotation
											JOINT RightHandIndex3
											{
												OFFSET -3.01859 0.00000 0.00000
												CHANNELS 3 Zrotation Xrotation Yrotation
												End site
												{
													OFFSET 0.00000 0.00000 0.00000
												}
											}
										}
									}
									JOINT RightHandMiddle1
									{
										OFFSET -14.26970 0.00000 -0.09147
										CHANNELS 3 Zrotation Xrotation Yrotation
										JOINT RightHandMiddle2
										{
											OFFSET -6.17441 0.00000 0.00000
											CHANNELS 3 Zrotation Xrotation Yrotation
											JOINT RightHandMiddle3
											{
												OFFSET -3.56743 0.00000 0.00000
												CHANNELS 3 Zrotation Xrotation Yrotation
												End site
												{
													OFFSET 0.00000 0.00000 0.00000
												}
											}
										}
									}
									JOINT RightHandRing1
									{
										OFFSET -12.69180 0.00000 -3.06433
										CHANNELS 3 Zrotation Xrotation Yrotation
										JOINT RightHandRing2
										{
											OFFSET -5.62556 0.00000 0.00000
											CHANNELS 3 Zrotation Xrotation Yrotation
											JOINT RightHandRing3
											{
												OFFSET -3.56744 0.00000 0.00000
												CHANNELS 3 Zrotation Xrotation Yrotation
												End site
												{
													OFFSET 0.00000 0.00000 0.00000
												}
											}
										}
									}
									JOINT RightHandPinky1
									{
										OFFSET -11.11390 0.00000 -6.03719
										CHANNELS 3 Zrotation Xrotation Yrotation
										JOINT RightHandPinky2
										{
											OFFSET -4.52789 0.00000 0.00000
											CHANNELS 3 Zrotation Xrotation Yrotation
											JOINT RightHandPinky3
											{
												OFFSET -2.46976 0.00000 0.00000
												CHANNELS 3 Zrotation Xrotation Yrotation
												End site
												{
													OFFSET 0.00000 0.00000 0.00000
												}
											}
										}
									}
								}
							}
						}
					}
					JOINT LeftShoulder
					{
						OFFSET 0.01000 7.91373 5.19711
						CHANNELS 3 Zrotation Xrotation Yrotation
						JOINT LeftArm
						{
							OFFSET 18.41580 0.00000 0.00000
							CHANNELS 3 Zrotation Xrotation Yrotation
							JOINT LeftForeArm
							{
								OFFSET 29.11090 0.00000 0.00000
								CHANNELS 3 Zrotation Xrotation Yrotation
								JOINT LeftHand
								{
									OFFSET 24.65040 0.00000 0.00000
									CHANNELS 3 Zrotation Xrotation Yrotation
									JOINT LeftHandThumb1
									{
										OFFSET 5.35114 -0.85590 3.97906
										CHANNELS 3 Zrotation Xrotation Yrotation
										JOINT LeftHandThumb2
										{
											OFFSET 4.52789 0.00000 0.00000
											CHANNELS 3 Zrotation Xrotation Yrotation
											JOINT LeftHandThumb3
											{
												OFFSET 2.46977 0.00000 0.00000
												CHANNELS 3 Zrotation Xrotation Yrotation
												End site
												{
													OFFSET 0.00000 0.00000 0.00000
												}
											}
										}
									}
									JOINT LeftHandIndex1
									{
										OFFSET 14.26970 0.00000 2.88139
										CHANNELS 3 Zrotation Xrotation Yrotation
										JOINT LeftHandIndex2
										{
											OFFSET 5.48836 0.00000 0.00000
											CHANNELS 3 Zrotation Xrotation Yrotation
											JOINT LeftHandIndex3
											{
												OFFSET 3.01859 0.00000 0.00000
												CHANNELS 3 Zrotation Xrotation Yrotation
												End site
												{
													OFFSET 0.00000 0.00000 0.00000
												}
											}
										}
									}
									JOINT LeftHandMiddle1
									{
										OFFSET 14.26970 0.00000 -0.09147
										CHANNELS 3 Zrotation Xrotation Yrotation
										JOINT LeftHandMiddle2
										{
											OFFSET 6.17440 0.00000 0.00000
											CHANNELS 3 Zrotation Xrotation Yrotation
											JOINT LeftHandMiddle3
											{
												OFFSET 3.56744 0.00000 0.00000
												CHANNELS 3 Zrotation Xrotation Yrotation
												End site
												{
													OFFSET 0.00000 0.00000 0.00000
												}
											}
										}
									}
									JOINT LeftHandRing1
									{
										OFFSET 12.69180 0.00000 -3.06433
										CHANNELS 3 Zrotation Xrotation Yrotation
										JOINT LeftHandRing2
										{
											OFFSET 5.62556 0.00000 0.00000
											CHANNELS 3 Zrotation Xrotation Yrotation
											JOINT LeftHandRing3
											{
												OFFSET 3.56744 0.00000 0.00000
												CHANNELS 3 Zrotation Xrotation Yrotation
												End site
												{
													OFFSET 0.00000 0.00000 0.00000
												}
											}
										}
									}
									JOINT LeftHandPinky1
									{
										OFFSET 11.11390 0.00000 -6.03719
										CHANNELS 3 Zrotation Xrotation Yrotation
										JOINT LeftHandPinky2
										{
											OFFSET 4.52789 0.00000 0.00000
											CHANNELS 3 Zrotation Xrotation Yrotation
											JOINT LeftHandPinky3
											{
												OFFSET 2.46976 0.00000 0.00000
												CHANNELS 3 Zrotation Xrotation Yrotation
												End site
												{
													OFFSET 0.00000 0.00000 0.00000
												}
											}
										}
									}
								}
							}
						}
					}
					JOINT pCube4
					{
						OFFSET 0.00000 10.91090 1.10792
						CHANNELS 3 Zrotation Xrotation Yrotation
						End site
						{
							OFFSET 0.00000 0.00000 0.00000
						}
					}
				}
			}
		}
	}
	JOINT RightUpLeg
	{
		OFFSET -9.98441 0.00000 0.00000
		CHANNELS 3 Zrotation Xrotation Yrotation
		JOINT RightLeg
		{
			OFFSET 0.00000 -42.11790 0.00000
			CHANNELS 3 Zrotation Xrotation Yrotation
			JOINT RightFoot
			{
				OFFSET 0.00000 -45.00020 -0.00001
				CHANNELS 3 Zrotation Xrotation Yrotation
				JOINT RightForeFoot
				{
					OFFSET 0.00000 -3.74820 0.00000
					CHANNELS 3 Zrotation Xrotation Yrotation
					JOINT RightToeBase
					{
						OFFSET 0.00000 0.06325 14.43120
						CHANNELS 3 Zrotation Xrotation Yrotation
						End site
						{
							OFFSET 0.00000 0.00000 0.00000
						}
					}
				}
			}
		}
	}
	JOINT LeftUpLeg
	{
		OFFSET 9.98441 0.00000 0.00000
		CHANNELS 3 Zrotation Xrotation Yrotation
		JOINT LeftLeg
		{
			OFFSET 0.00000 -42.11800 0.00000
			CHANNELS 3 Zrotation Xrotation Yrotation
			JOINT LeftFoot
			{
				OFFSET 0.00000 -45.00070 0.00000
				CHANNELS 3 Zrotation Xrotation Yrotation
				JOINT LeftForeFoot
				{
					OFFSET 0.00000 -3.74824 0.00000
					CHANNELS 3 Zrotation Xrotation Yrotation
					JOINT LeftToeBase
					{
						OFFSET 0.00000 0.06325 14.43110
						CHANNELS 3 Zrotation Xrotation Yrotation
						End site
						{
							OFFSET 0.00000 0.00000 0.00000
						}
					}
				}
			}
		}
	}
}
MOTION
Frames: 4
Frame Time: 0.050000
0.04835264364810952 -0.003455362696507268 0.047322421121840735 -0.025863738218355095 0.03294310053185647 0.02914657503883212 -1.9323344160390057 1.8388526527899434 -0.9397350911906771 -1.0284329846461213 3.968439574029178 0.42848344973279007 -1.157263139610198 -1.4297168083686254 -1.2104873441391322 0.719596292300117 0.6516348720683253 -0.8693405879191698 0.14638981341575938 12.269912756157092 -1.5213749209810217 -0.08314186008926111 -1.0904861760722842 -5.233139399109508 0.4784088163099213 -16.949734135431008 -0.4685167488965951 -4.059608657931247 1.4479647812264045 -14.96091153682491 71.05665598974815 27.299928077659597 3.698087028689177 -0.9237347135040038 5.360297090423222 39.44251446106857 22.85353234169214 -0.1094717145953609 -5.502888980520954 4.540851024305343 -0.14959746016606273 -1.5715051042684425 -0.019132671812742582 0.012300264333878026 -56.23292376148179 -0.027165136550210106 0.021330516563120207 -56.22524458730742 -38.798996391041335 0.025883134288007995 0.03168435309726077 -0.0344715284033195 0.00038128784254236797 0.013032449940287199 -0.026281165224263162 0.026403966922873664 -0.030985265715124662 -36.70023144388226 -0.03923654603393244 0.030441789153007118 0.02710630093515206 0.0012931551629424825 0.03275610039140004 -0.026963573349199275 -0.02999617795561447 0.04571198232395053 -19.721277449151515 -0.04976570125268906 -0.014848147515389746 0.04619152698040141 0.047084916695981936 0.028884824097475153 -0.002482811715501055 -0.009942551223228405 0.008014605263546734 24.092420621939514 -0.0437528183015512 0.03353614085602817 28.857968502418515 0.021372662832961003 -0.020431761264904234 28.888128811183687 -0.00968002360092478 0.03247452499785463 4.90299869873544 1.2305059384943922 12.960531331638464 -68.08815352455639 30.24434867683371 -9.173264308271637 -0.2303699392023556 -2.3520929255432526 -55.28754362533481 -18.978191223409393 -7.661731364409436 7.846558075657512 -0.5156484666859497 0.06626578357187113 -8.167496073032197 -0.024946893102239295 -0.016004491695288198 44.5828026661603 -0.013160944615754365 -0.030090121930386012 44.52116983149404 12.491864858514306 0.0024174279149248054 -0.04625978203128746 0.025458088384935552 0.006451010437674363 0.007011339186577498 -0.040610032357485545 0.03171052414238544 -0.0031398407234108677 11.105788213035458 0.007353855511494483 -0.016314772717664735 -0.01214829010248905 0.0014817135781921263 0.027712651017393012 -0.04073690196421024 -0.015251776825046604 0.0200737679377264 4.73052895071967 0.0070456240095789335 -0.03189392505398087 -0.005052577532909352 -0.021760682262740656 -0.005500322746904005 0.014769070623817916 -0.02843285318565596 -0.0027439675774848233 -5.556296074192082 -0.03733000261460624 0.036629744812430774 -6.755115374878461 0.020582876745839186 -0.026672776018592526 -6.740999885212372 -0.02984890156353127 0.008260815292390476 -0.020584555891124564 0.015364653442045644 -0.018921496618655213 8.05738167245295 3.4707037482879475 -19.265227388587522 0.011079193178846274 10.380728952013198 -0.015609762969906332 -5.615529711141957 -15.673421820337603 3.157163594460928 0.020813562564864847 0.02620701243096765 0.029538033011147234 0.000403426303884102 4.659212602603719 0.03250063964561492 12.505996670819895 -8.236717968001532 6.883301548902323 -0.02782146819022271 46.35676802107229 0.03377823979404777 -4.316214220304069 -14.77816705841516 -3.849794702459947 -0.0023950119329063245 -0.04853736127484398 -0.014353373441862166 0.03548885682521286 -10.75361802509521 -0.03166564553518801 
-0.039848689496148226 -0.007784949380850383 0.0163608814760594 -0.007886984161531507 -0.028453118380505595 -0.008146830077224939 -1.8029305313693604 1.7258727481724325 -0.914877931165202 -0.9964605092349671 3.9001322124853757 0.351278426694195 -1.1205956483279853 -1.3945861622933422 -1.185081548382857 0.7837361383075285 0.569086791178027 -0.8546058534916852 0.19336761326549268 12.241096048954827 -1.4833749555516833 -0.11537979099556521 -1.0514386280290509 -5.013201927435125 0.488125629679546 -16.735725661872436 -0.38262300918957176 -3.993489583093363 1.4230740681163598 -15.002289043387583 70.7243106487843 26.81555820834917 2.9842355620181387 -0.8419739674058522 4.860900116431098 39.466610315015565 22.50413708635441 -0.1269483576691543 -5.325287362020804 4.569247130983979 -0.17680239165208034 -1.596165772607108 0.03795318758433049 0.04748950262258268 -56.261830588726376 -0.002415147616334506 0.0032232166646083147 -56.23547419243416 -38.77925025899974 0.03972497746141167 -0.012922426611037562 0.030824982470368155 0.041429895641546956 0.03822659133613749 0.032906485579136904 0.0017008247153048296 -0.04916643578209756 -36.65800539199032 -0.013292942853652607 -0.03687835398371306 -0.02270078821274798 -0.012563180211274214 -0.022364243650081283 0.0219389580010348 -0.017054517207929394 -0.00623211594964879 -19.78524193143151 0.012694391725668788 0.002310949611957473 0.013691567437440296 0.03351051464242878 -0.025405676923021776 0.0036492969613796593 0.022162348812112716 0.003764226092709573 24.032816929766152 0.002056755871167034 0.024868334784762632 28.839175592993122 -0.01890961482653248 -0.001487760120734904 28.86540396358291 0.019963840594483428 0.018344275222647456 4.723238155291809 1.1984092254172387 13.040643877092904 -68.17751728021848 30.430549110766744 -8.482620082849307 2.464660396947089 -4.679103751527627 -53.950396743787906 -18.330837415915617 -6.452734585474514 6.999124705957969 -0.47644570627131394 0.02658634266534922 -8.171934928870407 0.008690221711590444 0.03059023043542465 44.54657890881723 -0.0363208715692175 -0.03929928172172104 44.6099513140053 12.442340590011499 0.025741674737759467 0.044494019121535805 -0.04524691678960036 0.028196895117723508 0.01861183811149282 -0.020413234708944985 -0.005387122680376383 0.023848603660879757 11.119056081509903 -0.039023356606463874 -0.04594874540583494 0.0010132722695267266 -0.030928618164812727 0.0035515302237552754 -0.010755328111812883 -0.031793202354650565 0.0032256053323110913 4.753352951034012 0.043445895661002584 0.027276924377916106 -0.004422276262246719 -8.190969592632391e-05 0.0031198668841116778 -0.007301116009452253 0.026742800287809478 -0.027329650519259823 -5.578203618139953 -0.04376680807412343 0.022233603300205906 -6.697958206050706 -0.02471368194632533 0.0016855405038356623 -6.696235976639992 -0.03579766276379136 -0.026340340546324434 -0.006983241621491656 -0.04972809679758615 -0.0038961929356085964 8.079362905955264 3.543244098831357 -19.231275430079762 0.012291199813162528 10.392421024157336 0.02471646160866138 -5.6233502449168 -15.655350700108862 3.1869383666138744 -0.0028570448492767743 -0.004476241911889241 0.031143232387910336 -0.04508601332736342 4.659567257117648 0.021772127008688136 12.452748454849383 -8.221975070793714 6.882471306110989 -0.01957769253871623 46.40189936410086 0.04145083819850208 -4.34186333624731 -14.710432000420365 -3.8081772214680436 -0.008632142924692015 -0.027440303567008714 -0.032487574937109985 -0.018149492619533678 -10.701371571198722 -0.022311565181496334 
0.04376342113835686 -0.011668125870929087 -0.020047895774651145 -0.03304176481823761 -0.008200680832854329 0.0023865642097072575 -1.797919460012189 1.6749950758470589 -0.9724805718731844 -1.0355083668931668 3.9083239173456485 0.398242255551715 -1.2022527498788667 -1.4491365228895 -1.1611024471435112 0.7586519821176142 0.5876066077008528 -0.8697430927663041 0.20201841071794618 12.087180973524536 -1.5475790526854336 -0.07735320606313519 -0.9823350982627156 -5.10636601485929 0.544935449249075 -16.60040609590836 -0.36941309156182145 -3.933588104890798 1.4014071207848176 -15.094093532559276 70.85575973231447 26.407797449965646 2.3097619471748905 -0.8618287744916413 4.410197341438571 39.34226255634166 22.312810008174598 -0.15989097222554619 -5.178933535909408 4.571776385243709 -0.12335858782275563 -1.6045035472415707 0.0307637447045838 -0.025597917727865484 -56.191544086172634 0.025391855145658785 0.04593864534827942 -56.24243738986073 -38.80868944990947 -0.01874530571305977 0.043369513878653614 0.04792031547659284 0.027242281016169476 0.014544892705947122 0.03477933676377996 0.03600799782365455 0.010986917421943769 -36.698103450207974 -0.007351820473519764 0.046939534104226945 -0.019475380014673627 0.027429468927329198 -0.0026958335582108342 -0.004488142629771257 0.03724054791038869 0.029860888071531644 -19.760261062061517 0.004223416280035456 -0.026989013087749234 -0.014045631794898525 0.0036830554479612373 -0.019098268396995022 0.012798186054076632 0.005200097169853073 0.01184892470737133 24.051060178434888 0.000798866299393684 -0.011664814852805598 28.880979167112734 -0.0008787593156303602 -0.02207698741595871 28.883351142642738 -0.04544712181052866 0.010472719271432701 4.4881489008962845 1.126728656823971 13.055681885999373 -68.58472455099123 30.31872624937613 -7.271615828959299 3.9284999599762394 -5.727133662742003 -51.46643943202045 -17.919800978206418 -5.197792456113426 6.183985901270528 -0.48373107407917093 0.11200709444909503 -8.12922517841739 0.03730664387849911 -0.042401974678963235 44.58403991390518 0.004219129952130045 -0.014099323812495582 44.558686708465274 12.441976129225981 0.04886227847867787 -0.04426248849072008 -0.011375650655594089 0.011626381002103054 -0.02443750006743934 0.012809321600683661 0.03648894446076467 -0.04276157878088438 11.118243337744172 0.013027651419853433 0.033007426098490514 -0.00724605168829761 -0.03329696566257153 0.009857705897838407 -0.03768210495277253 0.032414068650637326 -0.01615733524837608 4.753776776969997 0.02985477180056225 -0.0038812708387098815 0.028627887039840254 0.033935164116591886 -0.027635559363314542 -0.04263772916315455 0.010880289829039689 -0.0240838556901124 -5.582051227726795 -0.007138002443767979 0.04043964097150985 -6.722918809454374 0.01047574706895404 0.0002804153039874431 -6.71903963998534 -0.00630041811976241 -0.01082274673416035 0.007160653686149235 0.04014711813383603 0.028498401107232396 8.041531146965216 3.512619845788411 -19.260881311727125 0.010661009825175866 10.41684339292086 0.018793449088880202 -5.588332048447729 -15.697540140917175 3.15339558403669 -7.224452044516293e-05 -0.02682206178086608 0.030967464036269647 -0.021577156661280746 4.73182870632686 0.025903814872943905 12.4494263499742 -8.246098782305229 6.904707418088793 0.03077105837392623 46.38134527660701 0.012268332718490167 -4.320082644720014 -14.71871386908125 -3.8396349002957355 -0.012989326903304572 -0.03678558910166358 0.01652193586595897 0.03045734109071753 -10.741450834139332 0.027557223690885792 
-0.004592560559676695 -0.010122354088503118 -0.003435810623081643 -0.019072036492332634 0.008070243228061538 0.0013066039790719122 -1.9065439198747036 1.6533172181994913 -0.8918124682865974 -1.009546298058954 3.940498338847907 0.42787589926289954 -1.140469029482058 -1.4384442033501113 -1.0461587676192285 0.6998851847169507 0.5277928661533297 -0.7917842178542369 0.284386247927176 11.953625227276557 -1.5899514986359227 -0.059734058094211416 -0.9600307860970443 -5.25000920001259 0.5168732791767213 -16.58603527476028 -0.45548227398455793 -3.8195619422035914 1.3504036031288391 -15.212228549988579 71.23397884539384 26.412710484764194 1.8835937259063307 -1.008566996871126 4.035567594485721 39.49863385473634 21.957005898654938 -0.15860294745546505 -5.0080571767503415 4.557131819976179 -0.13702493940670604 -1.6247241216035775 -0.03241386620450282 0.020806902941848632 -56.24036783661038 -0.008868441182297895 -0.014680964805988385 -56.26787009312256 -38.74060480372857 0.0010063174680781108 0.036670629246647435 0.012590758646939863 0.04791637003905826 0.009681906034248147 0.017322205186451847 0.033916743680731304 0.004263570560309421 -36.67901500690413 0.03684584210073292 -0.04324925191392176 0.009321720355464436 0.01539735400820202 0.034478346691442244 -0.011984511653912991 -0.005563653725415448 -0.027120746532918037 -19.802913460583817 0.029378527406671025 0.037661538295544715 -0.03895399251740765 0.027593066184777564 0.003127310794278862 0.025764403602027874 -0.01825994904310143 0.010476752701776207 24.047474708516685 -0.02806698960190173 -0.005279193345745113 28.877974309150385 -0.03194768645819341 0.04343737935441742 28.912810768391076 -0.023398997704204533 0.024941734673548783 4.099440324917443 1.1266959469982814 13.137582924627711 -69.28034834712622 30.06988873811345 -5.7752482125157805 3.9285153623145184 -5.5725702682727265 -48.2858957639015 -17.601535393051638 -3.8896559131952793 5.247400499982912 -0.4342301391843266 0.0922038396927255 -8.167604373366682 -0.04399569992175911 -0.01376675777262806 44.54334125617359 0.0037213388625023033 -0.0023650068645501396 44.570486762952704 12.445213377994508 0.0014532717453113885 0.046498487800289964 0.02356688593539924 -0.024694111147989996 -0.02700862312065497 0.00589456586793795 0.041758647530847216 0.007703482607231696 11.083038934053615 -0.04180817709557487 0.006252878997917314 0.036410260758798385 0.004701113670479165 -0.025232971159249443 -0.04979078546447021 -0.026990130519285078 0.044260023527368735 4.78802622890315 0.024935979219263556 -0.01539562123233804 0.015530079517657848 0.005730472865303655 -0.010039335752235841 -0.0273790219056198 0.011636148604743494 -0.024630705463059416 -5.624735304242234 -0.007420940647875308 -0.024149581311111414 -6.701950912716481 -0.030536865558584845 -0.008306447812606817 -6.732968422260006 -0.030466756550679742 -0.03794220184403258 0.03471674059255927 0.04997474640036921 -0.023878697718238227 8.068733168385092 3.517645634733874 -19.215946133214 -0.006816158618563615 10.399142198754381 0.023775081249156636 -5.604791716446792 -15.707338208565249 3.189776395370399 0.0450196212501363 -0.02208376204888538 0.024534679626326106 -0.0024513406704500915 4.735710823482667 0.014026241660710067 12.46831061531738 -8.272553060157502 6.932871608336074 0.03919630708551876 46.36203298573806 0.005173706147806126 -4.329470516799422 -14.781363852053946 -3.8742821620084342 0.0030502545810800765 -0.02445294422931224 -0.021308135651225732 -0.04016723426526685 -10.75511270778279 0.028391635400274368 
